<?xml version="1.0" encoding="UTF-8"?>
<svg width="150px" height="24px" viewBox="0 0 150 24" version="1.1" xmlns="http://www.w3.org/2000/svg" xmlns:xlink="http://www.w3.org/1999/xlink">
    <title>编组</title>
    <defs>
        <polygon id="path-1" points="0 0 24 0 24 12 0 12"></polygon>
        <polygon id="path-3" points="0 0 16.6153846 0 16.6153846 12 0 12"></polygon>
    </defs>
    <g id="SaaSv5.0-剥离轻课" stroke="none" stroke-width="1" fill="none" fill-rule="evenodd">
        <g id="选择管理系统" transform="translate(-25.000000, -18.000000)">
            <g id="编组" transform="translate(25.000000, 18.000000)">
                <path d="M19.3846154,5.57420176 C21.451976,7.06647845 22.7839553,9.38831996 22.7873403,12 L24,12 C23.9983075,9.185433 22.896505,6.60978695 21.0737074,4.61538462 C20.4703393,4.87702263 19.9042058,5.19897838 19.3846154,5.57420176" id="Fill-1" fill="#2E7EEE"></path>
                <g transform="translate(10.153846, 0.000000)">
                    <mask id="mask-2" fill="white">
                        <use xlink:href="#path-1"></use>
                    </mask>
                    <g id="Clip-4"></g>
                    <path d="M4.66969067,2.5021095 C4.28334641,2.80079047 3.91500972,3.12326744 3.56795471,3.46707877 C1.3677569,5.64154182 0.00327410388,8.66117353 0,12 L5.74441527,12 C5.74768937,9.26427932 7.03523072,6.83216291 9.03488967,5.26901117 C9.53828314,4.87678727 10.0850585,4.5387198 10.6686675,4.2646554 C11.7671294,3.75016924 12.9924627,3.4613349 14.2857338,3.4613349 C18.9996248,3.4613349 22.8213226,7.28346656 22.8262338,12 L24,12 C23.9942703,5.37158018 18.6247399,-0.000574386466 12.0004093,-0.000574386466 C10.116981,-0.000574386466 8.33586849,0.434318224 6.75038368,1.20809885 C6.60223048,1.28030743 6.45653286,1.35579823 6.31165376,1.43293012 C6.0227141,1.58965557 5.74195969,1.7570482 5.46775349,1.93510801 C5.19354729,2.11316781 4.92752635,2.30271534 4.66969067,2.5021095" id="Fill-3" fill="#2E7EEE" mask="url(#mask-2)"></path>
                </g>
                <g>
                    <mask id="mask-4" fill="white">
                        <use xlink:href="#path-3"></use>
                    </mask>
                    <g id="Clip-6"></g>
                    <path d="M16.6153846,0.874590595 C15.2168193,0.31253547 13.690437,-8.20518431e-05 12.0881891,-8.20518431e-05 C5.4144928,-8.20518431e-05 0.00412312884,5.3710316 0,12 L5.78639902,12 C5.79134677,7.68407305 9.01645816,4.12138203 13.2022586,3.54701912 C13.368833,3.363223 13.5395305,3.18270894 13.7176497,3.00875903 C14.5818575,2.16034298 15.5540913,1.4448509 16.6153846,0.874590595" id="Fill-5" fill="#2E7EEE" mask="url(#mask-4)"></path>
                </g>
                <path d="M14.7807692,2.62661538 C15.0715385,2.40230769 15.3715385,2.18907692 15.6807692,1.98876923 C15.3715385,2.18907692 15.0715385,2.40230769 14.7807692,2.62661538" id="Fill-7" fill="#2E7EEE"></path>
                <path d="M11.9987707,24 C13.6346239,24 15.193438,23.6713912 16.6153846,23.0769231 L7.38461538,23.0769231 C8.80574242,23.6713912 10.3637369,24 11.9987707,24" id="Fill-9" fill="#2E7EEE"></path>
                <path d="M5.87754625,14.7692308 L0,14.7692308 C0.106329114,15.0844004 0.239649464,15.3917189 0.396689387,15.6923077 L6.46153846,15.6923077 C6.23006816,15.3984485 6.03295034,15.0900084 5.87754625,14.7692308" id="Fill-11" fill="#2E7EEE"></path>
                <path d="M15.2195743,21.2307692 L4.61538462,21.2307692 C5.05777712,21.568193 5.52249597,21.8786901 6.00871427,22.1538462 L16.6153846,22.1538462 C16.1291663,21.8778487 15.6627937,21.5690344 15.2195743,21.2307692" id="Fill-13" fill="#2E7EEE"></path>
                <path d="M7.20789132,16.6153846 L0.923076923,16.6153846 C1.12160595,16.9335516 1.34920827,17.241618 1.60256122,17.5384615 L8.30769231,17.5384615 C7.89651294,17.2573299 7.52852816,16.9475801 7.20789132,16.6153846" id="Fill-15" fill="#2E7EEE"></path>
                <path d="M14.2964353,20.7671271 C13.4469926,20.7427249 12.6301291,20.5820069 11.8625317,20.3076923 L3.69230769,20.3076923 C3.97201192,20.6316528 4.26681382,20.940467 4.57830262,21.2307692 L14.7692308,21.2307692 C14.6079241,21.0801487 14.4490012,20.9261623 14.2964353,20.7671271" id="Fill-17" fill="#2E7EEE"></path>
                <path d="M8.81157333,18.4615385 L1.84615385,18.4615385 C2.05221176,18.7801597 2.27316542,19.087852 2.50653222,19.3846154 L10.1538462,19.3846154 C9.67718207,19.1189575 9.22782686,18.8095839 8.81157333,18.4615385" id="Fill-19" fill="#2E7EEE"></path>
                <path d="M22.3909129,17.5384615 C22.6478518,17.2421791 22.8770817,16.9341127 23.0769231,16.6153846 L21.4210944,16.6153846 C21.0969819,16.9481412 20.7233288,17.2573299 20.3076923,17.5384615 L22.3909129,17.5384615 Z" id="Fill-21" fill="#2E7EEE"></path>
                <path d="M19.3846154,18.6179067 C19.7811251,18.9037411 20.2029824,19.1593106 20.645661,19.3846154 L21.4305329,19.3846154 C21.6867252,19.0886927 21.9284331,18.7801597 22.1538462,18.4615385 L19.5928282,18.4615385 C19.5240275,18.5145019 19.4552267,18.5666246 19.3846154,18.6179067" id="Fill-23" fill="#2E7EEE"></path>
                <path d="M24,14.7692308 L22.7252176,14.7692308 C22.5723717,15.0900084 22.3803141,15.3984485 22.1538462,15.6923077 L23.613484,15.6923077 C23.7663299,15.3917189 23.896769,15.0844004 24,14.7692308" id="Fill-25" fill="#2E7EEE"></path>
                <path d="M28.6153846,19.3846154 L31.6438413,19.3846154 C31.8789725,19.087852 32.0999792,18.7801597 32.3076923,18.4615385 L29.9613654,18.4615385 C29.5434467,18.8095839 29.0931247,19.1197982 28.6153846,19.3846154" id="Fill-27" fill="#2E7EEE"></path>
                <path d="M16.1814815,22.1538462 L28.1287208,22.1538462 C28.6215026,21.8786901 29.091695,21.5690344 29.5384615,21.2307692 L14.7692308,21.2307692 C15.2168339,21.5698759 15.6886997,21.8778487 16.1814815,22.1538462" id="Fill-29" fill="#2E7EEE"></path>
                <path d="M30.4615385,17.5384615 L32.5437111,17.5384615 C32.8007279,17.2421791 33.0308672,16.9341127 33.2307692,16.6153846 L31.5735984,16.6153846 C31.2493876,16.9475801 30.877301,17.2573299 30.4615385,17.5384615" id="Fill-31" fill="#2E7EEE"></path>
                <path d="M24.8785815,20.7730173 C23.9271894,20.7730173 23.0130115,20.6089335 22.1603182,20.3076923 L13.8461538,20.3076923 C13.984494,20.4642031 14.1244522,20.6181895 14.2700735,20.7671271 C14.4254028,20.9270037 14.5872042,21.0801487 14.7506236,21.2307692 L30.4833816,21.2307692 C30.7997034,20.940467 31.0998449,20.6316528 31.3846154,20.3076923 L27.6000809,20.3076923 C26.7457696,20.6097749 25.8307827,20.7730173 24.8785815,20.7730173" id="Fill-33" fill="#2E7EEE"></path>
                <path d="M22.1542559,24 C23.7901092,24 25.3481037,23.6713912 26.7692308,23.0769231 L17.5384615,23.0769231 C18.9604081,23.6713912 20.5184027,24 22.1542559,24" id="Fill-35" fill="#2E7EEE"></path>
                <path d="M18.9653942,18.4615385 L12,18.4615385 C12.2067619,18.7801597 12.4284106,19.0870113 12.6624651,19.3846154 L20.3076923,19.3846154 C19.9032661,19.1584699 19.5178619,18.9029004 19.1556151,18.6179067 C19.0911054,18.5666246 19.0282498,18.5136612 18.9653942,18.4615385" id="Fill-37" fill="#2E7EEE"></path>
                <path d="M16.9544693,14.7692308 L11.0769231,14.7692308 C11.1832522,15.0844004 11.3165725,15.3917189 11.4736125,15.6923077 L17.5384615,15.6923077 C17.3069912,15.3984485 17.1098734,15.0900084 16.9544693,14.7692308" id="Fill-39" fill="#2E7EEE"></path>
                <path d="M18.4615385,17.5384615 C18.0504053,17.2573299 17.6808008,16.9481412 17.3602,16.6153846 L11.0769231,16.6153846 C11.2754298,16.9341127 11.5030065,17.2421791 11.7571615,17.5384615 L18.4615385,17.5384615 Z" id="Fill-41" fill="#2E7EEE"></path>
                <path d="M34.1538462,14.7692308 L32.8790637,14.7692308 C32.7262179,15.0900084 32.5341602,15.3984485 32.3076923,15.6923077 L33.7657297,15.6923077 C33.9193758,15.3917189 34.0506152,15.0844004 34.1538462,14.7692308" id="Fill-43" fill="#2E7EEE"></path>
                <path d="M138.51159,4.88095471 C138.51159,5.13851905 138.330256,5.35301797 138.101333,5.35301797 L135.844923,5.35301797 C135.615179,5.35301797 135.434667,5.13851905 135.434667,4.88095471 L135.434667,4.00308267 C135.434667,3.74717469 135.615179,3.53101941 135.844923,3.53101941 L138.101333,3.53101941 C138.330256,3.53101941 138.51159,3.74717469 138.51159,4.00308267 L138.51159,4.88095471 Z M138.51159,8.3021711 C138.51159,8.56636089 138.330256,8.76512437 138.101333,8.76512437 L135.844923,8.76512437 C135.615179,8.76512437 135.434667,8.56636089 135.434667,8.3021711 L135.434667,7.4317527 C135.434667,7.1675629 135.615179,6.96051761 135.844923,6.96051761 L138.101333,6.96051761 C138.330256,6.96051761 138.51159,7.1675629 138.51159,7.4317527 L138.51159,8.3021711 Z M142.048,7.4317527 C142.048,7.1675629 142.227692,6.96051761 142.458256,6.96051761 L144.714667,6.96051761 C144.936205,6.96051761 145.124923,7.1675629 145.124923,7.4317527 L145.124923,8.3021711 C145.124923,8.56636089 144.936205,8.76512437 144.714667,8.76512437 L142.458256,8.76512437 C142.227692,8.76512437 142.048,8.56636089 142.048,8.3021711 L142.048,7.4317527 Z M142.048,4.00308267 C142.048,3.74717469 142.227692,3.53101941 142.458256,3.53101941 L144.714667,3.53101941 C144.936205,3.53101941 145.124923,3.74717469 145.124923,4.00308267 L145.124923,4.88095471 C145.124923,5.13851905 144.936205,5.35301797 144.714667,5.35301797 L142.458256,5.35301797 C142.227692,5.35301797 142.048,5.13851905 142.048,4.88095471 L142.048,4.00308267 Z M149.128205,11.5237958 L142.048,11.5237958 L142.048,10.3809058 L147.831795,10.3809058 C148.292103,10.3809058 148.652308,9.95853343 148.652308,9.44506111 L148.652308,2.86102085 C148.652308,2.34672035 148.292103,1.92517613 147.831795,1.92517613 L132.726154,1.92517613 C132.267487,1.92517613 131.905641,2.34672035 131.905641,2.86102085 L131.905641,9.44506111 C131.905641,9.95853343 132.267487,10.3809058 132.726154,10.3809058 L138.51159,10.3809058 L138.51159,11.5237958 L131.430564,11.5237958 C131.209026,11.5237958 131.020308,11.7308411 131.020308,11.9867491 L131.020308,12.6658577 C131.020308,12.914312 131.209026,13.1296391 131.430564,13.1296391 L137.691077,13.1296391 C138.142359,13.1296391 138.51159,13.5528397 138.51159,14.066312 L138.51159,22.2487419 C138.51159,22.7042416 138.871795,23.0769231 139.332103,23.0769231 L141.227487,23.0769231 C141.677949,23.0769231 142.048,22.7042416 142.048,22.2487419 L142.048,14.066312 C142.048,13.5528397 142.409026,13.1296391 142.868513,13.1296391 L149.128205,13.1296391 C149.350564,13.1296391 149.538462,12.914312 149.538462,12.6658577 L149.538462,11.9867491 C149.538462,11.7308411 149.350564,11.5237958 149.128205,11.5237958 L149.128205,11.5237958 Z M77.7764103,6.96051761 L76.768,6.96051761 C76.3158974,6.96051761 75.9474872,7.38289001 75.9474872,7.89636233 L75.9474872,11.0426226 L78.5969231,10.7867146 L78.5969231,7.89636233 C78.5969231,7.38289001 78.2276923,6.96051761 77.7764103,6.96051761 L77.7764103,6.96051761 Z M75.9474872,12.5996032 L75.9474872,20.4598706 C75.9474872,20.9733429 76.3158974,21.3948871 76.768,21.3948871 L77.7764103,21.3948871 C78.2276923,21.3948871 78.5969231,20.9733429 78.5969231,20.4598706 L78.5969231,12.5507405 L75.9474872,12.5996032 Z M61.4654359,20.9733429 C61.4654359,21.2292509 61.2849231,21.4362962 61.0551795,21.4362962 L58.6994872,21.4362962 C58.4705641,21.4362962 58.2892308,21.2292509 58.2892308,20.9733429 L58.2892308,17.6846355 C58.2892308,17.4278994 58.4705641,17.2134004 58.6994872,17.2134004 L61.0551795,17.2134004 C61.2849231,17.2134004 61.4654359,17.4278994 61.4654359,17.6846355 L61.4654359,20.9733429 Z M55.1064615,20.9733429 C55.1064615,21.2292509 54.9259487,21.4362962 54.6962051,21.4362962 L52.3405128,21.4362962 C52.1115897,21.4362962 51.9302564,21.2292509 51.9302564,20.9733429 L51.9302564,17.6846355 C51.9302564,17.4278994 52.1115897,17.2134004 52.3405128,17.2134004 L54.6962051,17.2134004 C54.9259487,17.2134004 55.1064615,17.4278994 55.1064615,17.6846355 L55.1064615,20.9733429 Z M48.7474872,20.9733429 C48.7474872,21.2292509 48.5669744,21.4362962 48.3372308,21.4362962 L45.9815385,21.4362962 C45.7526154,21.4362962 45.5712821,21.2292509 45.5712821,20.9733429 L45.5712821,17.6846355 C45.5712821,17.4278994 45.7526154,17.2134004 45.9815385,17.2134004 L48.3372308,17.2134004 C48.5669744,17.2134004 48.7474872,17.4278994 48.7474872,17.6846355 L48.7474872,20.9733429 Z M66.0028718,21.4362962 L65.0584615,21.4362962 C64.8295385,21.4362962 64.6482051,21.2292509 64.6482051,20.9733429 L64.6482051,16.5508555 C64.6482051,16.0282732 64.2797949,15.6141826 63.8276923,15.6141826 L43.2090256,15.6141826 C42.7577436,15.6141826 42.3885128,16.0282732 42.3885128,16.5508555 L42.3885128,20.9733429 C42.3885128,21.2292509 42.208,21.4362962 41.9782564,21.4362962 L41.0346667,21.4362962 C40.8049231,21.4362962 40.6244103,21.6516233 40.6244103,21.9091876 L40.6244103,22.5791862 C40.6244103,22.8367505 40.8049231,23.0512495 41.0346667,23.0512495 L66.0028718,23.0512495 C66.2326154,23.0512495 66.4131282,22.8367505 66.4131282,22.5791862 L66.4131282,21.9091876 C66.4131282,21.6516233 66.2326154,21.4362962 66.0028718,21.4362962 L66.0028718,21.4362962 Z M125.900308,12.5996032 L125.817436,22.1236866 C125.810051,22.6537225 126.179282,23.0769231 126.637949,23.0769231 L128.648205,23.0769231 C129.099487,23.0769231 129.468718,22.6537225 129.468718,22.1410784 L129.468718,12.5416305 L125.900308,12.5996032 Z M129.058462,6.96879942 L124.152615,6.96879942 C123.930256,6.96879942 123.742359,7.18329835 123.742359,7.44086269 L123.742359,8.11086125 C123.742359,8.3767074 123.930256,8.5837527 124.152615,8.5837527 L125.522872,8.5837527 C125.751795,8.5837527 125.933128,8.79825162 125.933128,9.04670597 L125.915897,11.0509044 L129.468718,10.7030683 L129.468718,7.44086269 C129.468718,7.18329835 129.280821,6.96879942 129.058462,6.96879942 L129.058462,6.96879942 Z M119.377231,21.4362962 L116.989538,14.015793 C116.874667,13.6431114 116.562872,13.3946571 116.218256,13.3946571 L114.437744,13.3946571 C113.863385,13.3946571 113.468718,14.0489202 113.666462,14.6626024 L115.438769,20.1857426 C115.635692,20.7903149 115.241846,21.4362962 114.666667,21.4362962 L103.434667,21.4362962 C102.868513,21.4362962 102.474667,20.7994249 102.663385,20.1940244 L104.353641,14.6874479 L100.809026,14.7445924 L98.7495385,21.4362962 L98.6338462,21.8346513 C98.4697436,22.4301136 98.8644103,23.0512495 99.4215385,23.0512495 L118.70359,23.0512495 C119.253333,23.0512495 119.648,22.4383954 119.483897,21.8346513 L119.377231,21.4362962 Z M120.632615,8.97216966 L96.6654359,8.97216966 C96.4430769,8.97216966 96.2551795,9.17921495 96.2551795,9.44506111 L96.2551795,10.1150597 C96.2551795,10.372624 96.4430769,10.5879511 96.6654359,10.5879511 L100.931282,10.5879511 C101.498256,10.5879511 101.892103,11.2248224 101.703385,11.8302229 L101.325949,13.0551028 L104.96,12.7246585 L105.428513,11.2008052 C105.542564,10.8281237 105.854359,10.5879511 106.208,10.5879511 L120.632615,10.5879511 C120.861538,10.5879511 121.042872,10.372624 121.042872,10.1150597 L121.042872,9.44506111 C121.042872,9.17921495 120.861538,8.97216966 120.632615,8.97216966 L120.632615,8.97216966 Z M70.3515897,6.96051761 L69.3497436,6.96051761 C68.8910769,6.96051761 68.5292308,7.38289001 68.5292308,7.89636233 L68.5292308,11.771422 L71.1721026,11.5237958 L71.1721026,7.89636233 C71.1721026,7.38289001 70.8020513,6.96051761 70.3515897,6.96051761 L70.3515897,6.96051761 Z M68.5292308,12.7246585 L68.5292308,20.4598706 C68.5292308,20.9733429 68.8910769,21.3948871 69.3497436,21.3948871 L70.3515897,21.3948871 C70.8020513,21.3948871 71.1721026,20.9733429 71.1721026,20.4598706 L71.1721026,12.6741395 L68.5292308,12.7246585 Z M93.9249231,12.5176132 L88.8377436,8.13653487 L93.8756923,8.13653487 C94.0972308,8.13653487 94.2859487,7.92948958 94.2859487,7.67192523 L94.2859487,6.99364486 C94.2859487,6.74436233 94.0972308,6.52903523 93.8756923,6.52903523 L89.5187692,6.52903523 C89.0666667,6.52903523 88.6982564,6.10666283 88.6982564,5.59319051 L88.6982564,4.65734579 C88.6982564,4.13641984 89.0666667,3.72232926 89.5187692,3.72232926 L92.7351795,3.72232926 C92.9558974,3.72232926 93.1454359,3.50700216 93.1454359,3.24943781 L93.1454359,2.57943925 C93.1454359,2.3135931 92.9558974,2.10654781 92.7351795,2.10654781 L81.4358974,2.10654781 C81.2151795,2.10654781 81.025641,2.3135931 81.025641,2.57943925 L81.025641,3.24943781 C81.025641,3.50700216 81.2151795,3.72232926 81.4358974,3.72232926 L84.6121026,3.72232926 C85.0625641,3.72232926 85.4326154,4.13641984 85.4326154,4.65734579 L85.4326154,5.59319051 C85.4326154,6.10666283 85.0625641,6.52903523 84.6121026,6.52903523 L80.2379487,6.52903523 C80.0172308,6.52903523 79.8276923,6.74436233 79.8276923,6.99364486 L79.8276923,7.67192523 C79.8276923,7.92948958 80.0172308,8.13653487 80.2379487,8.13653487 L85.5885128,8.13653487 L80.222359,12.7991948 C79.9762051,12.9648311 79.8276923,13.2621481 79.8276923,13.5859669 L79.8276923,14.6700561 L81.3546667,13.5354479 C81.6254359,13.3284026 81.9946667,13.5602933 81.985641,13.9412566 L81.8461538,22.0864184 C81.8387692,22.6164543 82.208,23.0479367 82.6666667,23.0479367 L83.8646154,23.0479367 C84.3003077,23.0479367 84.6695385,22.6495816 84.6851282,22.1452193 L85.0387692,11.2579497 L85.505641,10.9101136 L87.0071795,9.8674335 C87.1392821,9.76722358 87.3033846,9.76722358 87.4346667,9.8674335 L89.3702564,11.2422142 L89.7238974,11.506404 L89.7238974,22.1162329 C89.7238974,22.6297052 90.0923077,23.0512495 90.5444103,23.0512495 L91.553641,23.0512495 C92.0041026,23.0512495 92.3741538,22.6297052 92.3741538,22.1162329 L92.3741538,13.9909475 C92.3741538,13.6348296 92.7105641,13.4120489 92.9813333,13.5859669 L94.3187692,14.3967563 L94.3187692,13.3201208 C94.3187692,12.9888483 94.1710769,12.6832495 93.9249231,12.5176132 L93.9249231,12.5176132 Z M78.1866667,4.14387347 L75.7095385,4.14387347 C75.2582564,4.14387347 74.8890256,3.72232926 74.8890256,3.20802876 L74.8890256,1.85892164 C74.8890256,1.34462114 74.5197949,0.923076923 74.0685128,0.923076923 L73.0584615,0.923076923 C72.608,0.923076923 72.2379487,1.34462114 72.2379487,1.85892164 L72.2379487,3.20802876 C72.2379487,3.72232926 71.8695385,4.14387347 71.4174359,4.14387347 L68.9394872,4.14387347 C68.7105641,4.14387347 68.5292308,4.35091876 68.5292308,4.60848311 L68.5292308,5.28676348 C68.5292308,5.53521783 68.7105641,5.75137311 68.9394872,5.75137311 L71.4174359,5.75137311 C71.8695385,5.75137311 72.2379487,6.1654637 72.2379487,6.68721783 L72.2379487,11.4078505 L74.8890256,11.1502861 L74.8890256,6.68721783 C74.8890256,6.1654637 75.2582564,5.75137311 75.7095385,5.75137311 L78.1866667,5.75137311 C78.4090256,5.75137311 78.5969231,5.53521783 78.5969231,5.28676348 L78.5969231,4.60848311 C78.5969231,4.35091876 78.4090256,4.14387347 78.1866667,4.14387347 L78.1866667,4.14387347 Z M72.2379487,12.658404 L72.2379487,22.0988411 C72.2379487,22.6214234 72.608,23.035514 73.0584615,23.035514 L74.0685128,23.035514 C74.5197949,23.035514 74.8890256,22.6214234 74.8890256,22.0988411 L74.8890256,12.616995 L72.2379487,12.658404 Z M50.0438974,7.35721639 L48.1485128,7.35721639 C47.6972308,7.35721639 47.328,7.77958879 47.328,8.29306111 L47.328,13.6679569 C47.328,14.1814292 47.6972308,14.6038016 48.1485128,14.6038016 L50.0438974,14.6038016 C50.494359,14.6038016 50.8644103,14.1814292 50.8644103,13.6679569 L50.8644103,8.29306111 C50.8644103,7.77958879 50.494359,7.35721639 50.0438974,7.35721639 L50.0438974,7.35721639 Z M53.5146667,12.616995 L53.5146667,13.8261395 L65.0921026,13.4534579 L65.0921026,12.2517671 L53.5146667,12.616995 Z M44.7433846,8.19367937 L42.848,8.19367937 C42.3967179,8.19367937 42.0274872,8.61687994 42.0274872,9.13863408 L42.0274872,12.8654493 C42.0274872,13.3789216 42.3967179,13.801294 42.848,13.801294 L44.7433846,13.801294 C45.1946667,13.801294 45.5638974,13.3789216 45.5638974,12.8654493 L45.5638974,9.13863408 C45.5638974,8.61687994 45.1946667,8.19367937 44.7433846,8.19367937 L44.7433846,8.19367937 Z M58.5526154,9.98255068 C57.7238974,9.99994249 57.0510769,9.23801582 57.0510769,8.29306111 C57.0510769,7.77958879 56.6900513,7.35721639 56.2305641,7.35721639 L54.3351795,7.35721639 C53.8756923,7.35721639 53.5146667,7.77130697 53.5146667,8.29306111 L53.5146667,11.8128311 L65.0921026,11.1097052 L65.0921026,9.90056075 L58.5526154,9.98255068 Z M66.0028718,2.93472897 L62.6387692,2.93472897 C62.1866667,2.93472897 61.8182564,2.51318476 61.8182564,1.99971244 L61.8182564,1.85892164 C61.8182564,1.34462114 61.4490256,0.923076923 60.9977436,0.923076923 L59.102359,0.923076923 C58.6510769,0.923076923 58.2818462,1.34462114 58.2818462,1.85892164 C58.2818462,2.4543839 57.8625641,2.93472897 57.3464615,2.93472897 L49.5597949,2.93472897 C49.1085128,2.93472897 48.7392821,2.51318476 48.7392821,1.99971244 L48.7392821,1.85892164 C48.7392821,1.34462114 48.3782564,0.923076923 47.9187692,0.923076923 L46.0315897,0.923076923 C45.5712821,0.923076923 45.2110769,1.34462114 45.2110769,1.85892164 C45.2110769,2.4543839 44.7844103,2.93472897 44.2674872,2.93472897 L41.025641,2.93472897 C40.7967179,2.93472897 40.6153846,3.14177426 40.6153846,3.40762042 L40.6153846,4.07761898 C40.6153846,4.33518332 40.7967179,4.55051042 41.025641,4.55051042 L44.3905641,4.55051042 C44.8418462,4.55051042 45.2110769,4.95631919 45.2110769,5.48552696 L45.2110769,5.61058231 C45.2110769,6.14061826 45.5712821,6.54642703 46.0315897,6.54642703 L47.9187692,6.54642703 C48.3782564,6.54642703 48.7392821,6.14061826 48.7392821,5.61058231 C48.7392821,5.02257369 49.1659487,4.55051042 49.6828718,4.55051042 L57.4613333,4.55051042 C57.9208205,4.55051042 58.2818462,4.95631919 58.2818462,5.48552696 L58.2818462,5.61058231 C58.2818462,6.14061826 58.6510769,6.54642703 59.102359,6.54642703 L60.9977436,6.54642703 C61.4490256,6.54642703 61.8182564,6.14061826 61.8182564,5.61058231 C61.8182564,5.02257369 62.2449231,4.55051042 62.7618462,4.55051042 L66.0028718,4.55051042 C66.2326154,4.55051042 66.4131282,4.33518332 66.4131282,4.07761898 L66.4131282,3.40762042 C66.4131282,3.14177426 66.2326154,2.93472897 66.0028718,2.93472897 L66.0028718,2.93472897 Z M129.149538,4.21840978 L128.468513,1.59307549 C128.361846,1.20465852 128.041026,0.930530554 127.680821,0.930530554 L125.859282,0.930530554 C125.309538,0.930530554 124.915692,1.5442128 125.079795,2.13967505 L125.760821,4.7492739 C125.867487,5.15425449 126.186667,5.42755428 126.548513,5.42755428 L128.370051,5.42755428 C128.919795,5.42755428 129.313641,4.8155284 129.149538,4.21840978 L129.149538,4.21840978 Z M117.769026,2.93472897 L99.5282051,2.93472897 C99.3074872,2.93472897 99.1179487,3.14177426 99.1179487,3.40762042 L99.1179487,4.07761898 C99.1179487,4.33518332 99.3074872,4.55051042 99.5282051,4.55051042 L117.769026,4.55051042 C117.998769,4.55051042 118.179282,4.33518332 118.179282,4.07761898 L118.179282,3.40762042 C118.179282,3.14177426 117.998769,2.93472897 117.769026,2.93472897 L117.769026,2.93472897 Z" id="Fill-45" fill="#2E7EEE"></path>
                <path d="M135.67811,15.788124 L135.32475,21.4568442 C135.254391,21.8611397 134.932302,22.1538462 134.556271,22.1538462 L132.782435,22.1538462 C132.292266,22.1538462 131.922489,21.663713 132.013956,21.1349529 L132.368879,15.4662327 C132.438457,15.0610789 132.761328,14.7692308 133.135795,14.7692308 L134.911194,14.7692308 C135.401364,14.7692308 135.770359,15.2593639 135.67811,15.788124" id="Fill-47" fill="#2E7EEE"></path>
                <path d="M147.399653,15.3768909 L147.656324,21.0449523 C147.816031,21.5959661 147.424097,22.1538462 146.876532,22.1538462 L145.072499,22.1538462 C144.713159,22.1538462 144.39619,21.9058041 144.292707,21.5453278 L144.036035,15.8772664 C143.876329,15.3253943 144.267447,14.7692308 144.815013,14.7692308 L146.619861,14.7692308 C146.978386,14.7692308 147.29454,15.0155563 147.399653,15.3768909" id="Fill-49" fill="#2E7EEE"></path>
            </g>
        </g>
    </g>
</svg>